<svg width="48" height="48" viewBox="0 0 48 48" fill="none" xmlns="http://www.w3.org/2000/svg">
<path d="M23.7359 26.6599C23.7359 23.2419 28.8319 23.2099 28.8319 18.9459C28.8319 16.6779 26.8579 14.7319 24.0019 14.7319C21.1459 14.7319 19.1719 16.6779 19.1719 18.9459" stroke="currentColor" stroke-width="3" stroke-miterlimit="10" stroke-linecap="round" stroke-linejoin="round"/>
<path d="M23.7383 34C22.6343 34 21.7383 33.104 21.7383 32C21.7383 30.896 22.6343 30 23.7383 30C24.8423 30 25.7383 30.896 25.7383 32C25.7383 33.104 24.8423 34 23.7383 34Z" fill="currentColor"/>
<path d="M37.0887 37.0878C44.3047 29.8718 44.3047 18.1298 37.0887 10.9118C29.8727 3.69377 18.1307 3.69577 10.9127 10.9118C3.69475 18.1278 3.69675 29.8698 10.9127 37.0878C18.1287 44.3058 29.8727 44.3058 37.0887 37.0878Z" stroke="currentColor" stroke-width="3" stroke-miterlimit="10" stroke-linecap="round" stroke-linejoin="round"/>
</svg>
