<svg xmlns="http://www.w3.org/2000/svg" xmlns:xlink="http://www.w3.org/1999/xlink"><symbol id="sprite-burger" viewBox="0 0 24 24"><path fill="currentColor" d="M17.987 18H3.013c-1.35 0-1.35 2 0 2h14.974c1.35 0 1.35-2 0-2M14.225 11H2.775c-1.033-.036-1.033 2.036 0 2h11.45c1.033.036 1.033-2.036 0-2M3.192 6h17.616c1.59.035 1.59-2.035 0-2H3.192c-1.59-.036-1.59 2.035 0 2"/></symbol><use xlink:href="#sprite-burger" width="24" height="24" y="0"/><view id="sprite-burger-view" viewBox="0 0 24 24"/><symbol id="sprite-close" viewBox="0 0 18 18"><path fill="currentColor" fill-rule="evenodd" d="m8.923 9.984-7.47 7.47-1.06-1.061 7.47-7.47-7.47-7.47 1.06-1.06 7.47 7.47 7.47-7.47 1.06 1.06-7.47 7.47 7.47 7.47-1.06 1.06z" clip-rule="evenodd"/></symbol><use xlink:href="#sprite-close" width="18" height="18" y="24"/><view id="sprite-close-view" viewBox="0 24 18 18"/><symbol fill="none" id="sprite-contacts-mail" viewBox="0 0 21 20"><path fill="currentColor" d="M16.75 14.85a.275.275 0 0 1-.267.267H4.16a.275.275 0 0 1-.268-.268V8.421q.264.3.578.552c1.197.92 2.402 1.858 3.566 2.83.627.527 1.406 1.171 2.276 1.171h.017c.87 0 1.65-.644 2.277-1.172a115 115 0 0 1 3.566-2.829q.314-.251.577-.552zm0-8.798c0 .711-.686 1.64-1.23 2.067a518 518 0 0 0-3.357 2.654c-.443.36-1.247 1.13-1.833 1.13h-.017c-.586 0-1.39-.77-1.833-1.13a518 518 0 0 0-3.356-2.654c-.754-.594-1.23-1.423-1.23-2.377 0-.142.125-.268.267-.268h12.322c.318 0 .267.368.267.578m1.072-.31c0-.737-.603-1.34-1.34-1.34H4.163c-.738 0-1.34.603-1.34 1.34v9.107c0 .737.602 1.34 1.34 1.34h12.32c.737 0 1.34-.603 1.34-1.34z"/></symbol><use xlink:href="#sprite-contacts-mail" width="21" height="20" y="42"/><view id="sprite-contacts-mail-view" viewBox="0 42 21 20"/><symbol fill="none" id="sprite-contacts-vk" viewBox="0 0 21 20"><path fill="currentColor" d="M15.18 12.286q0 .976-.369 1.714-.369.739-.993 1.222a4.6 4.6 0 0 1-1.626.826q-.879.246-2.241.246H4.713V3.207h4.623q1.44 0 2.18.114.746.106 1.397.457.703.379 1.046 1.011.351.633.351 1.46 0 .957-.483 1.704a2.8 2.8 0 0 1-1.319 1.099v.07q1.215.255 1.943 1.046.73.783.73 2.118m-4.21-5.379q0-.315-.167-.65a.96.96 0 0 0-.5-.483 2 2 0 0 0-.774-.15 36 36 0 0 0-1.318-.017h-.229v2.768h.413q.844 0 1.178-.017.343-.018.703-.185.395-.184.545-.51.15-.325.15-.756m.827 5.318q0-.607-.247-.95-.246-.342-.738-.518-.298-.114-.826-.123a44 44 0 0 0-1.397-.018h-.607v3.279h.176q1.283 0 1.775-.018.493-.017 1.002-.237.45-.195.65-.563.212-.378.212-.852"/></symbol><use xlink:href="#sprite-contacts-vk" width="21" height="20" y="62"/><view id="sprite-contacts-vk-view" viewBox="0 62 21 20"/><symbol fill="none" id="sprite-delete" viewBox="0 0 20 20"><path fill="#606483" d="M8.652 2.222a.5.5 0 0 0-.354.147l-.631.63H3.5a.5.5 0 0 0-.5.501v.556a.5.5 0 0 0 .5.5h13a.5.5 0 0 0 .5-.5V3.5a.5.5 0 0 0-.5-.5h-4.167l-.631-.631a.5.5 0 0 0-.354-.147zm-4.03 3.89a.5.5 0 0 0-.496.556l1.124 9.76a1.56 1.56 0 0 0 1.542 1.35h6.415c.776 0 1.44-.58 1.543-1.357l1.124-9.753a.5.5 0 0 0-.497-.557z"/><path stroke="#fff" stroke-linecap="round" d="m12.566 15.442.876-7.008M7.434 15.442l-.876-7.008M10 15.5v-7"/></symbol><use xlink:href="#sprite-delete" width="20" height="20" y="82"/><view id="sprite-delete-view" viewBox="0 82 20 20"/><symbol fill="none" id="sprite-faq" viewBox="0 0 48 48"><path stroke="currentColor" stroke-linecap="round" stroke-linejoin="round" stroke-miterlimit="10" stroke-width="3" d="M23.736 26.66c0-3.418 5.096-3.45 5.096-7.714 0-2.268-1.974-4.214-4.83-4.214s-4.83 1.946-4.83 4.214"/><path fill="currentColor" d="M23.738 34a2 2 0 1 1 .002-4.001A2 2 0 0 1 23.738 34"/><path stroke="currentColor" stroke-linecap="round" stroke-linejoin="round" stroke-miterlimit="10" stroke-width="3" d="M37.089 37.088c7.216-7.216 7.216-18.958 0-26.176s-18.958-7.216-26.176 0-7.216 18.958 0 26.176 18.96 7.218 26.176 0"/></symbol><use xlink:href="#sprite-faq" width="48" height="48" y="102"/><view id="sprite-faq-view" viewBox="0 102 48 48"/><symbol fill="none" id="sprite-file" viewBox="0 0 55 56"><path fill="currentColor" d="M23.993 29.872v-1.285c0-.362.282-.643.643-.643H38.78c.362 0 .643.281.643.643v1.285a.635.635 0 0 1-.643.643H24.636a.635.635 0 0 1-.643-.643M24.636 33.087H38.78c.362 0 .643.281.643.643v1.285a.635.635 0 0 1-.643.643H24.636a.635.635 0 0 1-.643-.643V33.73c0-.362.282-.643.643-.643M24.636 38.23H38.78c.362 0 .643.28.643.642v1.286a.635.635 0 0 1-.643.643H24.636a.635.635 0 0 1-.643-.643v-1.286c0-.361.282-.642.643-.642"/><path fill="currentColor" fill-rule="evenodd" d="M16.279 21.815a7.415 7.415 0 1 1 7.173-9.3h12.756c1.064 0 2.55.623 3.294 1.366l6.268 6.268c.743.743 1.366 2.23 1.366 3.295v23.143a1.93 1.93 0 0 1-1.928 1.928h-27a1.93 1.93 0 0 1-1.929-1.928zm2.571-.458a7.42 7.42 0 0 0 4.813-6.27h10.616v8.357a1.93 1.93 0 0 0 1.929 1.928h8.357v20.572H18.85zm18.824-5.668c-.14-.14-.482-.321-.824-.442v7.554h7.554c-.12-.341-.301-.683-.442-.824zM17.28 15.4h4v-2h-4v-4h-2v4h-4v2h4v4h2z" clip-rule="evenodd"/></symbol><use xlink:href="#sprite-file" width="55" height="56" y="150"/><view id="sprite-file-view" viewBox="0 150 55 56"/><symbol fill="none" id="sprite-icon-arrow" viewBox="0 0 21 21"><path fill="currentColor" d="M14.934 8.51a.3.3 0 0 0-.09-.205l-.446-.446a.3.3 0 0 0-.205-.09.3.3 0 0 0-.206.09l-3.509 3.509L6.97 7.859a.3.3 0 0 0-.205-.09.3.3 0 0 0-.205.09l-.447.446a.3.3 0 0 0-.089.206c0 .071.036.152.09.205l4.16 4.16c.054.054.134.09.205.09a.3.3 0 0 0 .206-.09l4.16-4.16a.3.3 0 0 0 .09-.205"/></symbol><use xlink:href="#sprite-icon-arrow" width="21" height="21" y="206"/><view id="sprite-icon-arrow-view" viewBox="0 206 21 21"/><symbol fill="none" id="sprite-icon-file" viewBox="0 0 18 21"><path fill="#272733" d="M16.813 4.609 13.33 1.127c-.413-.413-1.239-.76-1.83-.76h-10C.909.368.429.848.429 1.44v17.858c0 .591.48 1.07 1.071 1.07h15c.591 0 1.071-.479 1.071-1.07V6.439c0-.591-.346-1.417-.759-1.83m-4.956-2.723c.19.067.38.167.458.245l3.493 3.494c.078.078.179.267.246.457h-4.197zm4.286 17.053H1.857V1.796h8.572V6.44c0 .592.48 1.072 1.071 1.072h4.643zM4.714 9.296v.715c0 .2.157.357.357.357h7.858c.2 0 .357-.156.357-.357v-.715c0-.2-.156-.357-.357-.357H5.07c-.2 0-.357.157-.357.357m8.215 2.5H5.07c-.2 0-.357.157-.357.358v.714c0 .2.157.357.357.357h7.858c.2 0 .357-.156.357-.357v-.714c0-.201-.156-.357-.357-.357m0 2.858H5.07c-.2 0-.357.156-.357.357v.714c0 .201.157.357.357.357h7.858c.2 0 .357-.156.357-.357v-.714c0-.201-.156-.357-.357-.357"/></symbol><use xlink:href="#sprite-icon-file" width="18" height="21" y="227"/><view id="sprite-icon-file-view" viewBox="0 227 18 21"/><symbol fill="none" id="sprite-message" viewBox="0 0 55 56"><path fill="currentColor" d="M44.429 39.607a.66.66 0 0 1-.643.643H14.214a.66.66 0 0 1-.643-.643V24.18q.633.723 1.387 1.326c2.872 2.21 5.765 4.46 8.558 6.79 1.506 1.265 3.375 2.812 5.464 2.812h.04c2.09 0 3.958-1.547 5.464-2.812 2.793-2.33 5.686-4.58 8.558-6.79q.754-.603 1.387-1.326zm0-21.114c0 1.708-1.648 3.938-2.954 4.962-2.692 2.11-5.383 4.24-8.055 6.369-1.065.863-2.994 2.712-4.4 2.712h-.04c-1.406 0-3.335-1.849-4.4-2.712-2.671-2.13-5.363-4.26-8.055-6.369-1.808-1.426-2.954-3.415-2.954-5.705 0-.341.302-.643.643-.643h29.572c.763 0 .643.884.643 1.386M47 17.75a3.224 3.224 0 0 0-3.214-3.214H14.214A3.224 3.224 0 0 0 11 17.75v21.857a3.224 3.224 0 0 0 3.214 3.214h29.572A3.224 3.224 0 0 0 47 39.607z"/></symbol><use xlink:href="#sprite-message" width="55" height="56" y="248"/><view id="sprite-message-view" viewBox="0 248 55 56"/><symbol fill="none" id="sprite-money" viewBox="0 0 55 56"><path fill="currentColor" d="M23.929 32.536v-1.929H26.5v-5.786h-.04c-.322.503-.623.724-1.105 1.145l-1.547-1.607 2.973-2.752h2.29v9h2.572v1.929zm10.285-5.143c0-3.656-2.21-8.357-6.428-8.357-4.219 0-6.429 4.7-6.429 8.357s2.21 8.357 6.429 8.357c4.218 0 6.428-4.7 6.428-8.357M44.5 32.536a5.153 5.153 0 0 0-5.143 5.143H16.214a5.153 5.153 0 0 0-5.143-5.143V22.25a5.153 5.153 0 0 0 5.143-5.143h23.143A5.153 5.153 0 0 0 44.5 22.25zm2.571-16.715c0-.703-.582-1.285-1.285-1.285h-36c-.703 0-1.286.582-1.286 1.285v23.143c0 .703.583 1.286 1.286 1.286h36c.703 0 1.285-.583 1.285-1.286z"/></symbol><use xlink:href="#sprite-money" width="55" height="56" y="304"/><view id="sprite-money-view" viewBox="0 304 55 56"/><symbol fill="none" id="sprite-payments-qiwi" viewBox="0 0 21 20"><g clip-path="url(#a)"><g clip-path="url(#b)"><path fill="currentColor" d="M16.912 13.456c.06.388-.067.552-.195.552s-.314-.158-.521-.47c-.207-.313-.278-.661-.178-.84a.3.3 0 0 1 .17-.126.3.3 0 0 1 .213.022c.341.124.475.63.51.862m-1.888.85c.41.335.535.733.318 1.013a.687.687 0 0 1-.55.238 1 1 0 0 1-.626-.218c-.37-.314-.48-.825-.237-1.114a.53.53 0 0 1 .434-.176c.245.008.479.099.661.257m-.684 3.23c1.762 0 3.674.585 5.791 2.4.211.18.493-.045.309-.27-2.08-2.54-4.008-3.025-5.922-3.433-2.346-.502-3.554-1.78-4.4-3.182-.166-.279-.242-.23-.257.13a7.7 7.7 0 0 0 .124 1.59H9.7a6.23 6.23 0 0 1-3.377-.992 5.93 5.93 0 0 1-2.239-2.639 5.7 5.7 0 0 1-.345-3.397A5.82 5.82 0 0 1 5.4 4.733a6.15 6.15 0 0 1 3.112-1.61 6.27 6.27 0 0 1 3.512.335 6.04 6.04 0 0 1 2.728 2.166 5.74 5.74 0 0 1 .986 3.95 9.4 9.4 0 0 0-1.93-.035c-.232.02-.198.13-.025.154 2.004.35 3.391 1.55 3.706 3.74a.05.05 0 0 0 .014.03.055.055 0 0 0 .062.014.06.06 0 0 0 .026-.021 8.66 8.66 0 0 0 1.24-5.608 8.78 8.78 0 0 0-2.554-5.176 9.3 9.3 0 0 0-5.29-2.59A9.46 9.46 0 0 0 5.165 1.15a9 9 0 0 0-3.94 4.286 8.63 8.63 0 0 0-.417 5.72 8.9 8.9 0 0 0 3.28 4.779 9.4 9.4 0 0 0 5.612 1.849c1.343.004 2.68-.25 4.641-.25z"/></g></g><defs><clipPath id="a"><path fill="#fff" d="M.5 0h20v20H.5z"/></clipPath><clipPath id="b"><path fill="#fff" d="M.5 0h20v20H.5z"/></clipPath></defs></symbol><use xlink:href="#sprite-payments-qiwi" width="21" height="20" y="360"/><view id="sprite-payments-qiwi-view" viewBox="0 360 21 20"/><symbol fill="none" id="sprite-payments-wm" viewBox="0 0 21 20"><g clip-path="url(#a)"><path fill="currentColor" d="M9.34 0c1.411 0 2.753.323 3.957.901.189.085.379.187.567.29l-.826.73L11.801.647l-2.133 1.87-1.256-1.343L4.49 4.66l2.511 2.737-.98.85 2.477 2.738-.98.85 3.543 3.893 2.098-1.904 1.824 2.04c-.362.273-.758.546-1.187.783a9.07 9.07 0 0 1-4.438 1.156c-4.971 0-9.012-3.995-9.012-8.909C.328 4.013 4.37 0 9.34 0M7.69 8.349l2.15-1.905 1.926 2.126-2.15 1.904zm1.53 3.672 2.133-1.92 1.944 2.124-2.15 1.905zM6.16 4.727l2.149-1.904 1.926 2.125-2.15 1.904zm3.937-1.02 1.6-1.429 1.445 1.582-1.6 1.445zm2.856 6.546 1.6-1.428 1.444 1.597-1.6 1.43zm1.41 3.214 1.6-1.429 1.444 1.582-1.6 1.444zm.654-7.346 1.066-.952.963 1.054-1.066.952zM13.64 2.975l1.066-.968.964 1.07-1.067.953zm2.734 6.292 1.067-.952.98 1.054-1.083.952zm-4.798-2.364 1.6-1.428 1.444 1.581-1.599 1.429z"/></g><defs><clipPath id="a"><path fill="#fff" d="M.5 0h20v20H.5z"/></clipPath></defs></symbol><use xlink:href="#sprite-payments-wm" width="21" height="20" y="380"/><view id="sprite-payments-wm-view" viewBox="0 380 21 20"/><symbol fill="none" id="sprite-payments-ym" viewBox="0 0 21 20"><path fill="currentColor" fill-rule="evenodd" d="M3.78 9.93c0-.983.083-1.608 2.138-3.13 1.701-1.259 7.155-5.563 7.155-5.563v7.185h4.147v10.34H5.075a1.294 1.294 0 0 1-1.295-1.284z" clip-rule="evenodd"/><path fill="currentColor" fill-opacity=".2" fill-rule="evenodd" d="M13.073 8.422v4.163l-7.62 5.148 9.634-3.108V8.422z" clip-rule="evenodd"/><path fill="#231F20" fill-rule="evenodd" d="M9.59 8.207c.446-.527 1.097-.713 1.454-.415.358.297.286.965-.16 1.492-.445.526-1.096.712-1.453.415-.358-.298-.286-.966.16-1.492" clip-rule="evenodd"/></symbol><use xlink:href="#sprite-payments-ym" width="21" height="20" y="400"/><view id="sprite-payments-ym-view" viewBox="0 400 21 20"/><symbol fill="none" id="sprite-percent" viewBox="0 0 55 56"><path fill="currentColor" d="M37.786 35.964a2.59 2.59 0 0 1-2.572 2.572 2.59 2.59 0 0 1-2.571-2.572 2.59 2.59 0 0 1 2.571-2.571 2.59 2.59 0 0 1 2.572 2.571M22.357 20.536a2.59 2.59 0 0 1-2.571 2.571 2.59 2.59 0 0 1-2.572-2.571 2.59 2.59 0 0 1 2.572-2.572 2.59 2.59 0 0 1 2.571 2.572M42.93 35.964a7.716 7.716 0 0 0-7.715-7.714 7.716 7.716 0 0 0-7.714 7.714 7.716 7.716 0 0 0 7.714 7.715 7.716 7.716 0 0 0 7.715-7.715M41 14.107c0-.703-.583-1.286-1.286-1.286H36.5c-.402 0-.783.201-1.024.523L14.26 41.629c-.16.221-.26.483-.26.764 0 .703.582 1.286 1.285 1.286H18.5c.402 0 .784-.201 1.025-.523l21.214-28.285c.16-.222.261-.483.261-.764m-13.5 6.429a7.716 7.716 0 0 0-7.714-7.715 7.716 7.716 0 0 0-7.715 7.715 7.716 7.716 0 0 0 7.715 7.714 7.716 7.716 0 0 0 7.714-7.714"/></symbol><use xlink:href="#sprite-percent" width="55" height="56" y="420"/><view id="sprite-percent-view" viewBox="0 420 55 56"/><symbol fill="none" id="sprite-search" viewBox="0 0 55 55"><path fill="currentColor" d="M33.929 24.929c0 4.962-4.038 9-9 9-4.963 0-9-4.038-9-9s4.037-9 9-9c4.962 0 9 4.037 9 9m10.285 16.714c0-.683-.281-1.346-.743-1.808l-6.89-6.89a14.1 14.1 0 0 0 2.49-8.016c0-7.815-6.328-14.143-14.142-14.143-7.815 0-14.143 6.328-14.143 14.143 0 7.814 6.328 14.142 14.143 14.142a14.1 14.1 0 0 0 8.015-2.49l6.89 6.87a2.52 2.52 0 0 0 1.809.763 2.59 2.59 0 0 0 2.571-2.571"/></symbol><use xlink:href="#sprite-search" width="55" height="55" y="476"/><view id="sprite-search-view" viewBox="0 476 55 55"/><symbol fill="none" id="sprite-steps-dots" viewBox="0 0 106 6"><circle cx="87.25" cy="3" r="3" fill="#C4C4C4"/><circle cx="55.011" cy="3" r="3" fill="#C4C4C4"/><circle cx="29.011" cy="3" r="3" fill="#C4C4C4"/><circle cx="3.011" cy="3" r="3" fill="#C4C4C4"/></symbol><use xlink:href="#sprite-steps-dots" width="111" height="6" y="531"/><view id="sprite-steps-dots-view" viewBox="0 531 111 6"/></svg>